{
  "accessors": [
    {
      "bufferView": 4,
      "componentType": 5126,
      "count": 7943,
      "max": [
        33.9906120300293,
        11.899999618530273,
        40.000003814697266
      ],
      "min": [
        -93.99061584472656,
        -3.4162039756774902,
        -40.0
      ],
      "type": "VEC3"
    },
    {
      "bufferView": 5,
      "componentType": 5126,
      "count": 7943,
      "max": [
        1.0,
        1.0,
        1.0
      ],
      "min": [
        -1.0,
        -1.0,
        -1.0
      ],
      "type": "VEC3"
    },
    {
      "bufferView": 6,
      "componentType": 5126,
      "count": 7943,
      "max": [
        1.0,
        1.0,
        1.0,
        1.0
      ],
      "min": [
        -1.0,
        -1.0,
        -1.0,
        1.0
      ],
      "type": "VEC4"
    },
    {
      "bufferView": 7,
      "componentType": 5126,
      "count": 7943,
      "max": [
        244.9716796875,
        40.99998092651367
      ],
      "min": [
        -217.98092651367188,
        -74.00296020507813
      ],
      "type": "VEC2"
    },
    {
      "bufferView": 8,
      "componentType": 5125,
      "count": 17820,
      "max": [
        7942
      ],
      "min": [
        0
      ],
      "type": "SCALAR"
    },
    {
      "bufferView": 9,
      "componentType": 5126,
      "count": 48,
      "max": [
        -37.87656021118164,
        9.899999618530273,
        1.099034070968628
      ],
      "min": [
        -58.5,
        -0.09999990463256836,
        -17.5
      ],
      "type": "VEC3"
    },
    {
      "bufferView": 10,
      "componentType": 5126,
      "count": 48,
      "max": [
        1.0,
        1.0,
        1.0
      ],
      "min": [
        -1.0,
        -1.0,
        -1.0
      ],
      "type": "VEC3"
    },
    {
      "bufferView": 11,
      "componentType": 5126,
      "count": 48,
      "max": [
        1.0,
        1.0,
        1.0,
        1.0
      ],
      "min": [
        -1.0,
        -1.0,
        -0.9902681112289429,
        1.0
      ],
      "type": "VEC4"
    },
    {
      "bufferView": 12,
      "componentType": 5126,
      "count": 48,
      "max": [
        1.0,
        1.0
      ],
      "min": [
        0.0,
        0.0
      ],
      "type": "VEC2"
    },
    {
      "bufferView": 13,
      "componentType": 5125,
      "count": 72,
      "max": [
        47
      ],
      "min": [
        0
      ],
      "type": "SCALAR"
    },
    {
      "bufferView": 14,
      "componentType": 5126,
      "count": 1545,
      "max": [
        -56.5,
        11.399999618530273,
        -12.0
      ],
      "min": [
        -57.5,
        10.399999618530273,
        -17.0
      ],
      "type": "VEC3"
    },
    {
      "bufferView": 15,
      "componentType": 5126,
      "count": 1545,
      "max": [
        0.9999749064445496,
        1.0,
        0.9999769926071167
      ],
      "min": [
        -0.9999749660491943,
        -1.0,
        -0.9999735951423645
      ],
      "type": "VEC3"
    },
    {
      "bufferView": 16,
      "componentType": 5126,
      "count": 1545,
      "max": [
        1.0,
        0.12895631790161133,
        1.0,
        1.0
      ],
      "min": [
        -1.0,
        -0.15755291283130646,
        -0.9999993443489075,
        1.0
      ],
      "type": "VEC4"
    },
    {
      "bufferView": 17,
      "componentType": 5126,
      "count": 1545,
      "max": [
        0.9983336925506592,
        0.9823710322380066
      ],
      "min": [
        -0.0009213685989379883,
        0.02410876750946045
      ],
      "type": "VEC2"
    },
    {
      "bufferView": 18,
      "componentType": 5125,
      "count": 6912,
      "max": [
        1544
      ],
      "min": [
        0
      ],
      "type": "SCALAR"
    },
    {
      "bufferView": 19,
      "componentType": 5126,
      "count": 72,
      "max": [
        -58.03871536254883,
        2.4000000953674316,
        -7.943376064300537
      ],
      "min": [
        -69.75,
        -0.09999990463256836,
        -20.75
      ],
      "type": "VEC3"
    },
    {
      "bufferView": 20,
      "componentType": 5126,
      "count": 72,
      "max": [
        1.0,
        1.0,
        1.0
      ],
      "min": [
        -1.0,
        -1.0,
        -1.0
      ],
      "type": "VEC3"
    },
    {
      "bufferView": 21,
      "componentType": 5126,
      "count": 72,
      "max": [
        1.0,
        0.0,
        1.0,
        1.0
      ],
      "min": [
        -0.6427876353263855,
        0.0,
        -1.0,
        1.0
      ],
      "type": "VEC4"
    },
    {
      "bufferView": 22,
      "componentType": 5126,
      "count": 72,
      "max": [
        1.0,
        1.0
      ],
      "min": [
        0.0,
        0.0
      ],
      "type": "VEC2"
    },
    {
      "bufferView": 23,
      "componentType": 5125,
      "count": 108,
      "max": [
        71
      ],
      "min": [
        0
      ],
      "type": "SCALAR"
    },
    {
      "bufferView": 24,
      "componentType": 5126,
      "count": 120,
      "max": [
        -58.0,
        1.5410125255584717,
        -7.0
      ],
      "min": [
        -69.70829010009766,
        -0.09999990463256836,
        -26.999998092651367
      ],
      "type": "VEC3"
    },
    {
      "bufferView": 25,
      "componentType": 5126,
      "count": 120,
      "max": [
        1.0,
        1.0,
        1.0
      ],
      "min": [
        -1.0,
        -1.0,
        -1.0
      ],
      "type": "VEC3"
    },
    {
      "bufferView": 26,
      "componentType": 5126,
      "count": 120,
      "max": [
        1.0,
        0.3288326561450958,
        1.0,
        1.0
      ],
      "min": [
        -1.0,
        -0.0015953603433445096,
        -1.0,
        1.0
      ],
      "type": "VEC4"
    },
    {
      "bufferView": 27,
      "componentType": 5126,
      "count": 120,
      "max": [
        1.0,
        1.0
      ],
      "min": [
        0.0,
        0.0
      ],
      "type": "VEC2"
    },
    {
      "bufferView": 28,
      "componentType": 5125,
      "count": 180,
      "max": [
        119
      ],
      "min": [
        0
      ],
      "type": "SCALAR"
    },
    {
      "bufferView": 29,
      "componentType": 5126,
      "count": 120,
      "max": [
        -12.657096862792969,
        -0.5,
        31.5
      ],
      "min": [
        -66.5,
        -1.5,
        -30.34290313720703
      ],
      "type": "VEC3"
    },
    {
      "bufferView": 30,
      "componentType": 5126,
      "count": 120,
      "max": [
        1.0,
        1.0,
        1.0
      ],
      "min": [
        -1.0,
        -1.0,
        -1.0
      ],
      "type": "VEC3"
    },
    {
      "bufferView": 31,
      "componentType": 5126,
      "count": 120,
      "max": [
        1.0,
        0.0,
        1.0,
        1.0
      ],
      "min": [
        -1.0,
        0.0,
        -1.0,
        1.0
      ],
      "type": "VEC4"
    },
    {
      "bufferView": 32,
      "componentType": 5126,
      "count": 120,
      "max": [
        1.0,
        1.0
      ],
      "min": [
        0.0,
        0.0
      ],
      "type": "VEC2"
    },
    {
      "bufferView": 33,
      "componentType": 5125,
      "count": 180,
      "max": [
        119
      ],
      "min": [
        0
      ],
      "type": "SCALAR"
    }
  ],
  "asset": {
    "version": "2.0"
  },
  "bufferViews": [
    {
      "buffer": 0,
      "byteLength": 12384
    },
    {
      "buffer": 0,
      "byteLength": 7045,
      "byteOffset": 12384
    },
    {
      "buffer": 0,
      "byteLength": 33512,
      "byteOffset": 19429
    },
    {
      "buffer": 0,
      "byteLength": 7092,
      "byteOffset": 52941
    },
    {
      "buffer": 0,
      "byteLength": 95316,
      "byteOffset": 60036,
      "target": 34962
    },
    {
      "buffer": 0,
      "byteLength": 95316,
      "byteOffset": 155352,
      "target": 34962
    },
    {
      "buffer": 0,
      "byteLength": 127088,
      "byteOffset": 250668,
      "target": 34962
    },
    {
      "buffer": 0,
      "byteLength": 63544,
      "byteOffset": 377756,
      "target": 34962
    },
    {
      "buffer": 0,
      "byteLength": 71280,
      "byteOffset": 441300,
      "target": 34963
    },
    {
      "buffer": 0,
      "byteLength": 576,
      "byteOffset": 512580,
      "target": 34962
    },
    {
      "buffer": 0,
      "byteLength": 576,
      "byteOffset": 513156,
      "target": 34962
    },
    {
      "buffer": 0,
      "byteLength": 768,
      "byteOffset": 513732,
      "target": 34962
    },
    {
      "buffer": 0,
      "byteLength": 384,
      "byteOffset": 514500,
      "target": 34962
    },
    {
      "buffer": 0,
      "byteLength": 288,
      "byteOffset": 514884,
      "target": 34963
    },
    {
      "buffer": 0,
      "byteLength": 18540,
      "byteOffset": 515172,
      "target": 34962
    },
    {
      "buffer": 0,
      "byteLength": 18540,
      "byteOffset": 533712,
      "target": 34962
    },
    {
      "buffer": 0,
      "byteLength": 24720,
      "byteOffset": 552252,
      "target": 34962
    },
    {
      "buffer": 0,
      "byteLength": 12360,
      "byteOffset": 576972,
      "target": 34962
    },
    {
      "buffer": 0,
      "byteLength": 27648,
      "byteOffset": 589332,
      "target": 34963
    },
    {
      "buffer": 0,
      "byteLength": 864,
      "byteOffset": 616980,
      "target": 34962
    },
    {
      "buffer": 0,
      "byteLength": 864,
      "byteOffset": 617844,
      "target": 34962
    },
    {
      "buffer": 0,
      "byteLength": 1152,
      "byteOffset": 618708,
      "target": 34962
    },
    {
      "buffer": 0,
      "byteLength": 576,
      "byteOffset": 619860,
      "target": 34962
    },
    {
      "buffer": 0,
      "byteLength": 432,
      "byteOffset": 620436,
      "target": 34963
    },
    {
      "buffer": 0,
      "byteLength": 1440,
      "byteOffset": 620868,
      "target": 34962
    },
    {
      "buffer": 0,
      "byteLength": 1440,
      "byteOffset": 622308,
      "target": 34962
    },
    {
      "buffer": 0,
      "byteLength": 1920,
      "byteOffset": 623748,
      "target": 34962
    },
    {
      "buffer": 0,
      "byteLength": 960,
      "byteOffset": 625668,
      "target": 34962
    },
    {
      "buffer": 0,
      "byteLength": 720,
      "byteOffset": 626628,
      "target": 34963
    },
    {
      "buffer": 0,
      "byteLength": 1440,
      "byteOffset": 627348,
      "target": 34962
    },
    {
      "buffer": 0,
      "byteLength": 1440,
      "byteOffset": 628788,
      "target": 34962
    },
    {
      "buffer": 0,
      "byteLength": 1920,
      "byteOffset": 630228,
      "target": 34962
    },
    {
      "buffer": 0,
      "byteLength": 960,
      "byteOffset": 632148,
      "target": 34962
    },
    {
      "buffer": 0,
      "byteLength": 720,
      "byteOffset": 633108,
      "target": 34963
    }
  ],
  "buffers": [
    {
      "byteLength": 633828,
      "uri": "ExampleStage.bin"
    }
  ],
  "images": [
    {
      "bufferView": 0,
      "mimeType": "image/png",
      "name": "ProBuilderDefault_20330_Diffuse.png"
    },
    {
      "bufferView": 1,
      "mimeType": "image/png",
      "name": "Door_24250_Diffuse.png"
    },
    {
      "bufferView": 2,
      "mimeType": "image/png",
      "name": "DestructableBox_24096_Diffuse.png"
    },
    {
      "bufferView": 3,
      "mimeType": "image/png",
      "name": "HealthCrate_24136_Diffuse.png"
    }
  ],
  "materials": [
    {
      "name": "ProBuilderDefault_20330",
      "pbrMetallicRoughness": {
        "baseColorFactor": [
          0.4517374634742737,
          0.45173293352127075,
          0.45173293352127075,
          1.0
        ],
        "baseColorTexture": {
          "index": 0
        },
        "metallicFactor": 0.0
      }
    },
    {
      "name": "Door_24250",
      "pbrMetallicRoughness": {
        "baseColorTexture": {
          "index": 1
        },
        "metallicFactor": 0.0
      }
    },
    {
      "name": "Crystal_24600",
      "pbrMetallicRoughness": {
        "baseColorFactor": [
          0.23113200068473816,
          0.628136157989502,
          1.0,
          1.0
        ],
        "metallicFactor": 0.0
      }
    },
    {
      "name": "DestructableBox_24096",
      "pbrMetallicRoughness": {
        "baseColorTexture": {
          "index": 2
        },
        "metallicFactor": 0.0
      }
    },
    {
      "name": "HealthCrate_24136",
      "pbrMetallicRoughness": {
        "baseColorTexture": {
          "index": 3
        },
        "metallicFactor": 0.0
      }
    },
    {
      "name": "Acid_24036",
      "pbrMetallicRoughness": {
        "baseColorFactor": [
          0.8910671472549438,
          1.0,
          0.0,
          1.0
        ],
        "metallicFactor": 0.0
      }
    }
  ],
  "meshes": [
    {
      "primitives": [
        {
          "attributes": {
            "NORMAL": 1,
            "POSITION": 0,
            "TANGENT": 2,
            "TEXCOORD_0": 3
          },
          "indices": 4,
          "material": 0,
          "mode": 4
        },
        {
          "attributes": {
            "NORMAL": 6,
            "POSITION": 5,
            "TANGENT": 7,
            "TEXCOORD_0": 8
          },
          "indices": 9,
          "material": 1,
          "mode": 4
        },
        {
          "attributes": {
            "NORMAL": 11,
            "POSITION": 10,
            "TANGENT": 12,
            "TEXCOORD_0": 13
          },
          "indices": 14,
          "material": 2,
          "mode": 4
        },
        {
          "attributes": {
            "NORMAL": 16,
            "POSITION": 15,
            "TANGENT": 17,
            "TEXCOORD_0": 18
          },
          "indices": 19,
          "material": 3,
          "mode": 4
        },
        {
          "attributes": {
            "NORMAL": 21,
            "POSITION": 20,
            "TANGENT": 22,
            "TEXCOORD_0": 23
          },
          "indices": 24,
          "material": 4,
          "mode": 4
        },
        {
          "attributes": {
            "NORMAL": 26,
            "POSITION": 25,
            "TANGENT": 27,
            "TEXCOORD_0": 28
          },
          "indices": 29,
          "material": 5,
          "mode": 4
        }
      ]
    }
  ],
  "nodes": [
    {
      "mesh": 0,
      "name": "Mesh",
      "rotation": [
        -0.0,
        0.0,
        0.0,
        -1.0
      ],
      "scale": [
        1.0,
        1.0,
        1.0
      ],
      "translation": [
        -0.0,
        0.0,
        0.0
      ]
    }
  ],
  "samplers": [
    {
      "wrapS": 10497,
      "wrapT": 10497
    }
  ],
  "scenes": [
    {
      "nodes": [
        0
      ]
    }
  ],
  "textures": [
    {
      "name": "ProBuilderDefault_20330_Diffuse",
      "sampler": 0,
      "source": 0
    },
    {
      "name": "Door_24250_Diffuse",
      "sampler": 0,
      "source": 1
    },
    {
      "name": "DestructableBox_24096_Diffuse",
      "sampler": 0,
      "source": 2
    },
    {
      "name": "HealthCrate_24136_Diffuse",
      "sampler": 0,
      "source": 3
    }
  ]
}
